<svg width="461" height="81" fill="none" xmlns="http://www.w3.org/2000/svg"><path d="M44.44 22.6c-3.6-3-8.12-5-12.94-5-3.6 0-8.32 2.1-8.32 6.3 0 4.4 5.31 6.1 8.62 7.1l5.02 1.5c10.43 3.1 18.56 8.3 18.56 20.4 0 7.4-1.8 15.1-7.72 20.1-5.92 5-13.75 7-21.27 7C16.96 80 7.62 76.8 0 71.5L8.13 56c4.91 4.3 10.63 7.7 17.35 7.7 4.62 0 9.43-2.3 9.43-7.5 0-5.5-7.62-7.3-11.83-8.5C10.84 44.1 2.8 41 2.8 26.5c0-15.2 10.83-25.1 25.88-25.1 7.53 0 16.86 2.4 23.48 6.2l-7.73 15zM91.9 19.8v12.5h21.97v16.5H91.9v12.9h23.27v16.5H72.44V3.4h42.73v16.5l-23.27-.1zM129.62 3.4h27.7c20.86 0 38.12 16.4 38.12 37.4s-17.36 37.4-38.13 37.4h-27.69V3.4zm19.56 58.3h4.42c11.64 0 21.57-6.4 21.57-20.9 0-13.4-8.83-20.9-21.37-20.9h-4.62v41.8zM287.64 39.4c0 24.2-17.46 41.3-41.54 41.3s-41.53-17.1-41.53-41.3c0-22.6 19.96-38.5 41.53-38.5s41.54 15.9 41.54 38.5zm-62.8.1c0 12.9 9.52 22.3 21.16 22.3s21.17-9.4 21.17-22.3c0-10.3-9.53-19.8-21.17-19.8-11.54 0-21.17 9.5-21.17 19.8zM297.97 3.4h19.56l35.72 45.8h.2V3.4h19.56v74.8h-19.56l-35.72-45.9h-.2v45.9h-19.56V3.4zM408.43 65.2l-5.22 13h-20.66l28.89-74.8h21.27L461 78.2h-20.77l-4.91-13h-26.9zm13.64-38.7h-.2l-8.02 23.8h16.25l-8.03-23.8z" fill="#fff"/></svg>